<mxfile host="app.diagrams.net" modified="2023-11-07T18:20:23.101Z" agent="Mozilla/5.0 (Windows NT 10.0; Win64; x64) AppleWebKit/537.36 (KHTML, like Gecko) Chrome/119.0.0.0 Safari/537.36" etag="V3fSHVmmwJcK9eGI9rzY" version="22.0.8" type="device">
  <diagram id="C5RBs43oDa-KdzZeNtuy" name="Level D Class diagram">
    <mxGraphModel dx="2555" dy="2101" grid="1" gridSize="10" guides="1" tooltips="1" connect="1" arrows="1" fold="1" page="1" pageScale="1" pageWidth="827" pageHeight="1169" math="0" shadow="0">
      <root>
        <mxCell id="WIyWlLk6GJQsqaUBKTNV-0" />
        <mxCell id="WIyWlLk6GJQsqaUBKTNV-1" parent="WIyWlLk6GJQsqaUBKTNV-0" />
        <mxCell id="u_rGbPmxzEg5UCbJ7NDs-0" value="Account&lt;br&gt;&amp;lt;&amp;lt;abstract&amp;gt;&amp;gt;" style="swimlane;fontStyle=1;align=center;verticalAlign=top;childLayout=stackLayout;horizontal=1;startSize=40;horizontalStack=0;resizeParent=1;resizeParentMax=0;resizeLast=0;collapsible=1;marginBottom=0;whiteSpace=wrap;html=1;" parent="WIyWlLk6GJQsqaUBKTNV-1" vertex="1">
          <mxGeometry x="320" y="-65" width="350" height="412" as="geometry" />
        </mxCell>
        <mxCell id="u_rGbPmxzEg5UCbJ7NDs-1" value="-&amp;nbsp; _id: string" style="text;strokeColor=none;fillColor=none;align=left;verticalAlign=top;spacingLeft=4;spacingRight=4;overflow=hidden;rotatable=0;points=[[0,0.5],[1,0.5]];portConstraint=eastwest;whiteSpace=wrap;html=1;" parent="u_rGbPmxzEg5UCbJ7NDs-0" vertex="1">
          <mxGeometry y="40" width="350" height="26" as="geometry" />
        </mxCell>
        <mxCell id="u_rGbPmxzEg5UCbJ7NDs-4" value="-&amp;nbsp; _customer: Customer" style="text;strokeColor=none;fillColor=none;align=left;verticalAlign=top;spacingLeft=4;spacingRight=4;overflow=hidden;rotatable=0;points=[[0,0.5],[1,0.5]];portConstraint=eastwest;whiteSpace=wrap;html=1;" parent="u_rGbPmxzEg5UCbJ7NDs-0" vertex="1">
          <mxGeometry y="66" width="350" height="26" as="geometry" />
        </mxCell>
        <mxCell id="u_rGbPmxzEg5UCbJ7NDs-26" value="- _pin: int" style="text;strokeColor=none;fillColor=none;align=left;verticalAlign=top;spacingLeft=4;spacingRight=4;overflow=hidden;rotatable=0;points=[[0,0.5],[1,0.5]];portConstraint=eastwest;whiteSpace=wrap;html=1;" parent="u_rGbPmxzEg5UCbJ7NDs-0" vertex="1">
          <mxGeometry y="92" width="350" height="26" as="geometry" />
        </mxCell>
        <mxCell id="xcTpRN-NQ14HoFIhRllt-2" value="- _typeAccount: string" style="text;strokeColor=none;fillColor=none;align=left;verticalAlign=top;spacingLeft=4;spacingRight=4;overflow=hidden;rotatable=0;points=[[0,0.5],[1,0.5]];portConstraint=eastwest;whiteSpace=wrap;html=1;" vertex="1" parent="u_rGbPmxzEg5UCbJ7NDs-0">
          <mxGeometry y="118" width="350" height="26" as="geometry" />
        </mxCell>
        <mxCell id="u_rGbPmxzEg5UCbJ7NDs-2" value="" style="line;strokeWidth=1;fillColor=none;align=left;verticalAlign=middle;spacingTop=-1;spacingLeft=3;spacingRight=3;rotatable=0;labelPosition=right;points=[];portConstraint=eastwest;strokeColor=inherit;" parent="u_rGbPmxzEg5UCbJ7NDs-0" vertex="1">
          <mxGeometry y="144" width="350" height="8" as="geometry" />
        </mxCell>
        <mxCell id="jDgMBZ_0vtlGDlaDWDbC-4" value="+ Account(string id, Customer customer, int pin)" style="text;strokeColor=none;fillColor=none;align=left;verticalAlign=top;spacingLeft=4;spacingRight=4;overflow=hidden;rotatable=0;points=[[0,0.5],[1,0.5]];portConstraint=eastwest;whiteSpace=wrap;html=1;" parent="u_rGbPmxzEg5UCbJ7NDs-0" vertex="1">
          <mxGeometry y="152" width="350" height="26" as="geometry" />
        </mxCell>
        <mxCell id="xcTpRN-NQ14HoFIhRllt-1" value="+ PrintTransaction(): abstract string" style="text;strokeColor=none;fillColor=none;align=left;verticalAlign=top;spacingLeft=4;spacingRight=4;overflow=hidden;rotatable=0;points=[[0,0.5],[1,0.5]];portConstraint=eastwest;whiteSpace=wrap;html=1;" vertex="1" parent="u_rGbPmxzEg5UCbJ7NDs-0">
          <mxGeometry y="178" width="350" height="26" as="geometry" />
        </mxCell>
        <mxCell id="xcTpRN-NQ14HoFIhRllt-0" value="+ BalanceCheck(double amount): abstract bool" style="text;strokeColor=none;fillColor=none;align=left;verticalAlign=top;spacingLeft=4;spacingRight=4;overflow=hidden;rotatable=0;points=[[0,0.5],[1,0.5]];portConstraint=eastwest;whiteSpace=wrap;html=1;" vertex="1" parent="u_rGbPmxzEg5UCbJ7NDs-0">
          <mxGeometry y="204" width="350" height="26" as="geometry" />
        </mxCell>
        <mxCell id="u_rGbPmxzEg5UCbJ7NDs-60" value="+ Deposit(double amount): abstract void" style="text;strokeColor=none;fillColor=none;align=left;verticalAlign=top;spacingLeft=4;spacingRight=4;overflow=hidden;rotatable=0;points=[[0,0.5],[1,0.5]];portConstraint=eastwest;whiteSpace=wrap;html=1;" parent="u_rGbPmxzEg5UCbJ7NDs-0" vertex="1">
          <mxGeometry y="230" width="350" height="26" as="geometry" />
        </mxCell>
        <mxCell id="u_rGbPmxzEg5UCbJ7NDs-65" value="+ Withdraw(double amount): abstract&amp;nbsp;void" style="text;strokeColor=none;fillColor=none;align=left;verticalAlign=top;spacingLeft=4;spacingRight=4;overflow=hidden;rotatable=0;points=[[0,0.5],[1,0.5]];portConstraint=eastwest;whiteSpace=wrap;html=1;" parent="u_rGbPmxzEg5UCbJ7NDs-0" vertex="1">
          <mxGeometry y="256" width="350" height="26" as="geometry" />
        </mxCell>
        <mxCell id="u_rGbPmxzEg5UCbJ7NDs-66" value="+ Transfer(double amount, string id): abstract&amp;nbsp;void" style="text;strokeColor=none;fillColor=none;align=left;verticalAlign=top;spacingLeft=4;spacingRight=4;overflow=hidden;rotatable=0;points=[[0,0.5],[1,0.5]];portConstraint=eastwest;whiteSpace=wrap;html=1;" parent="u_rGbPmxzEg5UCbJ7NDs-0" vertex="1">
          <mxGeometry y="282" width="350" height="26" as="geometry" />
        </mxCell>
        <mxCell id="u_rGbPmxzEg5UCbJ7NDs-54" value="+ AccountID: string &amp;lt;&amp;lt;readonly, property&amp;gt;&amp;gt;" style="text;strokeColor=none;fillColor=none;align=left;verticalAlign=top;spacingLeft=4;spacingRight=4;overflow=hidden;rotatable=0;points=[[0,0.5],[1,0.5]];portConstraint=eastwest;whiteSpace=wrap;html=1;" parent="u_rGbPmxzEg5UCbJ7NDs-0" vertex="1">
          <mxGeometry y="308" width="350" height="26" as="geometry" />
        </mxCell>
        <mxCell id="CnJATWPRRtcftuDtqHO4-2" value="+ Pin: int &amp;lt;&amp;lt;readonly, property&amp;gt;&amp;gt;" style="text;strokeColor=none;fillColor=none;align=left;verticalAlign=top;spacingLeft=4;spacingRight=4;overflow=hidden;rotatable=0;points=[[0,0.5],[1,0.5]];portConstraint=eastwest;whiteSpace=wrap;html=1;" parent="u_rGbPmxzEg5UCbJ7NDs-0" vertex="1">
          <mxGeometry y="334" width="350" height="26" as="geometry" />
        </mxCell>
        <mxCell id="jDgMBZ_0vtlGDlaDWDbC-21" value="+ Customer: Customer&amp;nbsp;&amp;lt;&amp;lt;readonly, property&amp;gt;&amp;gt;" style="text;strokeColor=none;fillColor=none;align=left;verticalAlign=top;spacingLeft=4;spacingRight=4;overflow=hidden;rotatable=0;points=[[0,0.5],[1,0.5]];portConstraint=eastwest;whiteSpace=wrap;html=1;" parent="u_rGbPmxzEg5UCbJ7NDs-0" vertex="1">
          <mxGeometry y="360" width="350" height="26" as="geometry" />
        </mxCell>
        <mxCell id="u_rGbPmxzEg5UCbJ7NDs-59" value="+ AccountDetails: string &amp;lt;&amp;lt;virtual, readonly, property&amp;gt;&amp;gt;" style="text;strokeColor=none;fillColor=none;align=left;verticalAlign=top;spacingLeft=4;spacingRight=4;overflow=hidden;rotatable=0;points=[[0,0.5],[1,0.5]];portConstraint=eastwest;whiteSpace=wrap;html=1;" parent="u_rGbPmxzEg5UCbJ7NDs-0" vertex="1">
          <mxGeometry y="386" width="350" height="26" as="geometry" />
        </mxCell>
        <mxCell id="u_rGbPmxzEg5UCbJ7NDs-6" value="Bank" style="swimlane;fontStyle=1;align=center;verticalAlign=top;childLayout=stackLayout;horizontal=1;startSize=26;horizontalStack=0;resizeParent=1;resizeParentMax=0;resizeLast=0;collapsible=1;marginBottom=0;whiteSpace=wrap;html=1;" parent="WIyWlLk6GJQsqaUBKTNV-1" vertex="1">
          <mxGeometry x="-169" y="-55" width="260" height="164" as="geometry" />
        </mxCell>
        <mxCell id="u_rGbPmxzEg5UCbJ7NDs-7" value="- _bankName: string" style="text;strokeColor=none;fillColor=none;align=left;verticalAlign=top;spacingLeft=4;spacingRight=4;overflow=hidden;rotatable=0;points=[[0,0.5],[1,0.5]];portConstraint=eastwest;whiteSpace=wrap;html=1;" parent="u_rGbPmxzEg5UCbJ7NDs-6" vertex="1">
          <mxGeometry y="26" width="260" height="26" as="geometry" />
        </mxCell>
        <mxCell id="u_rGbPmxzEg5UCbJ7NDs-43" value="- _listAccount: List&amp;lt;&amp;lt;Account&amp;gt;&amp;gt;" style="text;strokeColor=none;fillColor=none;align=left;verticalAlign=top;spacingLeft=4;spacingRight=4;overflow=hidden;rotatable=0;points=[[0,0.5],[1,0.5]];portConstraint=eastwest;whiteSpace=wrap;html=1;" parent="u_rGbPmxzEg5UCbJ7NDs-6" vertex="1">
          <mxGeometry y="52" width="260" height="26" as="geometry" />
        </mxCell>
        <mxCell id="u_rGbPmxzEg5UCbJ7NDs-8" value="" style="line;strokeWidth=1;fillColor=none;align=left;verticalAlign=middle;spacingTop=-1;spacingLeft=3;spacingRight=3;rotatable=0;labelPosition=right;points=[];portConstraint=eastwest;strokeColor=inherit;" parent="u_rGbPmxzEg5UCbJ7NDs-6" vertex="1">
          <mxGeometry y="78" width="260" height="8" as="geometry" />
        </mxCell>
        <mxCell id="jDgMBZ_0vtlGDlaDWDbC-2" value="+ Bank (string name, List&amp;lt;Account&amp;gt; accounts)" style="text;strokeColor=none;fillColor=none;align=left;verticalAlign=top;spacingLeft=4;spacingRight=4;overflow=hidden;rotatable=0;points=[[0,0.5],[1,0.5]];portConstraint=eastwest;whiteSpace=wrap;html=1;" parent="u_rGbPmxzEg5UCbJ7NDs-6" vertex="1">
          <mxGeometry y="86" width="260" height="26" as="geometry" />
        </mxCell>
        <mxCell id="jDgMBZ_0vtlGDlaDWDbC-5" value="+ AddAccount(): void" style="text;strokeColor=none;fillColor=none;align=left;verticalAlign=top;spacingLeft=4;spacingRight=4;overflow=hidden;rotatable=0;points=[[0,0.5],[1,0.5]];portConstraint=eastwest;whiteSpace=wrap;html=1;" parent="u_rGbPmxzEg5UCbJ7NDs-6" vertex="1">
          <mxGeometry y="112" width="260" height="26" as="geometry" />
        </mxCell>
        <mxCell id="u_rGbPmxzEg5UCbJ7NDs-9" value="+ BankName: string &amp;lt;&amp;lt;readonly, property&amp;gt;&amp;gt;" style="text;strokeColor=none;fillColor=none;align=left;verticalAlign=top;spacingLeft=4;spacingRight=4;overflow=hidden;rotatable=0;points=[[0,0.5],[1,0.5]];portConstraint=eastwest;whiteSpace=wrap;html=1;" parent="u_rGbPmxzEg5UCbJ7NDs-6" vertex="1">
          <mxGeometry y="138" width="260" height="26" as="geometry" />
        </mxCell>
        <mxCell id="u_rGbPmxzEg5UCbJ7NDs-11" value="Customer" style="swimlane;fontStyle=1;align=center;verticalAlign=top;childLayout=stackLayout;horizontal=1;startSize=26;horizontalStack=0;resizeParent=1;resizeParentMax=0;resizeLast=0;collapsible=1;marginBottom=0;whiteSpace=wrap;html=1;" parent="WIyWlLk6GJQsqaUBKTNV-1" vertex="1">
          <mxGeometry x="810" y="-70" width="400" height="320" as="geometry" />
        </mxCell>
        <mxCell id="u_rGbPmxzEg5UCbJ7NDs-12" value="- _name: string" style="text;strokeColor=none;fillColor=none;align=left;verticalAlign=top;spacingLeft=4;spacingRight=4;overflow=hidden;rotatable=0;points=[[0,0.5],[1,0.5]];portConstraint=eastwest;whiteSpace=wrap;html=1;" parent="u_rGbPmxzEg5UCbJ7NDs-11" vertex="1">
          <mxGeometry y="26" width="400" height="26" as="geometry" />
        </mxCell>
        <mxCell id="u_rGbPmxzEg5UCbJ7NDs-21" value="- _phone: string" style="text;strokeColor=none;fillColor=none;align=left;verticalAlign=top;spacingLeft=4;spacingRight=4;overflow=hidden;rotatable=0;points=[[0,0.5],[1,0.5]];portConstraint=eastwest;whiteSpace=wrap;html=1;" parent="u_rGbPmxzEg5UCbJ7NDs-11" vertex="1">
          <mxGeometry y="52" width="400" height="26" as="geometry" />
        </mxCell>
        <mxCell id="u_rGbPmxzEg5UCbJ7NDs-22" value="- _email: string" style="text;strokeColor=none;fillColor=none;align=left;verticalAlign=top;spacingLeft=4;spacingRight=4;overflow=hidden;rotatable=0;points=[[0,0.5],[1,0.5]];portConstraint=eastwest;whiteSpace=wrap;html=1;" parent="u_rGbPmxzEg5UCbJ7NDs-11" vertex="1">
          <mxGeometry y="78" width="400" height="26" as="geometry" />
        </mxCell>
        <mxCell id="jDgMBZ_0vtlGDlaDWDbC-6" value="- _address: string" style="text;strokeColor=none;fillColor=none;align=left;verticalAlign=top;spacingLeft=4;spacingRight=4;overflow=hidden;rotatable=0;points=[[0,0.5],[1,0.5]];portConstraint=eastwest;whiteSpace=wrap;html=1;" parent="u_rGbPmxzEg5UCbJ7NDs-11" vertex="1">
          <mxGeometry y="104" width="400" height="26" as="geometry" />
        </mxCell>
        <mxCell id="u_rGbPmxzEg5UCbJ7NDs-13" value="" style="line;strokeWidth=1;fillColor=none;align=left;verticalAlign=middle;spacingTop=-1;spacingLeft=3;spacingRight=3;rotatable=0;labelPosition=right;points=[];portConstraint=eastwest;strokeColor=inherit;" parent="u_rGbPmxzEg5UCbJ7NDs-11" vertex="1">
          <mxGeometry y="130" width="400" height="8" as="geometry" />
        </mxCell>
        <mxCell id="u_rGbPmxzEg5UCbJ7NDs-14" value="+ Customer(string name,string&amp;nbsp;phone,string&amp;nbsp;email,string&amp;nbsp;address)" style="text;strokeColor=none;fillColor=none;align=left;verticalAlign=top;spacingLeft=4;spacingRight=4;overflow=hidden;rotatable=0;points=[[0,0.5],[1,0.5]];portConstraint=eastwest;whiteSpace=wrap;html=1;" parent="u_rGbPmxzEg5UCbJ7NDs-11" vertex="1">
          <mxGeometry y="138" width="400" height="26" as="geometry" />
        </mxCell>
        <mxCell id="u_rGbPmxzEg5UCbJ7NDs-29" value="+ CheckInfo(): string" style="text;strokeColor=none;fillColor=none;align=left;verticalAlign=top;spacingLeft=4;spacingRight=4;overflow=hidden;rotatable=0;points=[[0,0.5],[1,0.5]];portConstraint=eastwest;whiteSpace=wrap;html=1;" parent="u_rGbPmxzEg5UCbJ7NDs-11" vertex="1">
          <mxGeometry y="164" width="400" height="26" as="geometry" />
        </mxCell>
        <mxCell id="u_rGbPmxzEg5UCbJ7NDs-24" value="+ UpdateInfo(string name,string&amp;nbsp;phone,string&amp;nbsp;email,string&amp;nbsp;address): void" style="text;strokeColor=none;fillColor=none;align=left;verticalAlign=top;spacingLeft=4;spacingRight=4;overflow=hidden;rotatable=0;points=[[0,0.5],[1,0.5]];portConstraint=eastwest;whiteSpace=wrap;html=1;" parent="u_rGbPmxzEg5UCbJ7NDs-11" vertex="1">
          <mxGeometry y="190" width="400" height="26" as="geometry" />
        </mxCell>
        <mxCell id="u_rGbPmxzEg5UCbJ7NDs-25" value="+ Name: string &amp;lt;&amp;lt;readonly, property&amp;gt;&amp;gt;" style="text;strokeColor=none;fillColor=none;align=left;verticalAlign=top;spacingLeft=4;spacingRight=4;overflow=hidden;rotatable=0;points=[[0,0.5],[1,0.5]];portConstraint=eastwest;whiteSpace=wrap;html=1;" parent="u_rGbPmxzEg5UCbJ7NDs-11" vertex="1">
          <mxGeometry y="216" width="400" height="26" as="geometry" />
        </mxCell>
        <mxCell id="u_rGbPmxzEg5UCbJ7NDs-27" value="+ Phone: string &amp;lt;&amp;lt;readonly, property&amp;gt;&amp;gt;" style="text;strokeColor=none;fillColor=none;align=left;verticalAlign=top;spacingLeft=4;spacingRight=4;overflow=hidden;rotatable=0;points=[[0,0.5],[1,0.5]];portConstraint=eastwest;whiteSpace=wrap;html=1;" parent="u_rGbPmxzEg5UCbJ7NDs-11" vertex="1">
          <mxGeometry y="242" width="400" height="26" as="geometry" />
        </mxCell>
        <mxCell id="jDgMBZ_0vtlGDlaDWDbC-7" value="+ Email: string &amp;lt;&amp;lt;readonly, property&amp;gt;&amp;gt;" style="text;strokeColor=none;fillColor=none;align=left;verticalAlign=top;spacingLeft=4;spacingRight=4;overflow=hidden;rotatable=0;points=[[0,0.5],[1,0.5]];portConstraint=eastwest;whiteSpace=wrap;html=1;" parent="u_rGbPmxzEg5UCbJ7NDs-11" vertex="1">
          <mxGeometry y="268" width="400" height="26" as="geometry" />
        </mxCell>
        <mxCell id="u_rGbPmxzEg5UCbJ7NDs-28" value="+ Address: string &amp;lt;&amp;lt;readonly, property&amp;gt;&amp;gt;" style="text;strokeColor=none;fillColor=none;align=left;verticalAlign=top;spacingLeft=4;spacingRight=4;overflow=hidden;rotatable=0;points=[[0,0.5],[1,0.5]];portConstraint=eastwest;whiteSpace=wrap;html=1;" parent="u_rGbPmxzEg5UCbJ7NDs-11" vertex="1">
          <mxGeometry y="294" width="400" height="26" as="geometry" />
        </mxCell>
        <mxCell id="u_rGbPmxzEg5UCbJ7NDs-32" value="ATM" style="swimlane;fontStyle=1;align=center;verticalAlign=top;childLayout=stackLayout;horizontal=1;startSize=26;horizontalStack=0;resizeParent=1;resizeParentMax=0;resizeLast=0;collapsible=1;marginBottom=0;whiteSpace=wrap;html=1;" parent="WIyWlLk6GJQsqaUBKTNV-1" vertex="1">
          <mxGeometry x="-214" y="180" width="350" height="346" as="geometry" />
        </mxCell>
        <mxCell id="u_rGbPmxzEg5UCbJ7NDs-10" value="- _location: string" style="text;strokeColor=none;fillColor=none;align=left;verticalAlign=top;spacingLeft=4;spacingRight=4;overflow=hidden;rotatable=0;points=[[0,0.5],[1,0.5]];portConstraint=eastwest;whiteSpace=wrap;html=1;" parent="u_rGbPmxzEg5UCbJ7NDs-32" vertex="1">
          <mxGeometry y="26" width="350" height="26" as="geometry" />
        </mxCell>
        <mxCell id="XUT3IchEpfX1-F_0FphG-0" value="- _bank: Bank" style="text;strokeColor=none;fillColor=none;align=left;verticalAlign=top;spacingLeft=4;spacingRight=4;overflow=hidden;rotatable=0;points=[[0,0.5],[1,0.5]];portConstraint=eastwest;whiteSpace=wrap;html=1;" parent="u_rGbPmxzEg5UCbJ7NDs-32" vertex="1">
          <mxGeometry y="52" width="350" height="26" as="geometry" />
        </mxCell>
        <mxCell id="xcTpRN-NQ14HoFIhRllt-13" value="- _currentAccount: Account" style="text;strokeColor=none;fillColor=none;align=left;verticalAlign=top;spacingLeft=4;spacingRight=4;overflow=hidden;rotatable=0;points=[[0,0.5],[1,0.5]];portConstraint=eastwest;whiteSpace=wrap;html=1;" vertex="1" parent="u_rGbPmxzEg5UCbJ7NDs-32">
          <mxGeometry y="78" width="350" height="26" as="geometry" />
        </mxCell>
        <mxCell id="XUT3IchEpfX1-F_0FphG-1" value="- _currentUser: Customer" style="text;strokeColor=none;fillColor=none;align=left;verticalAlign=top;spacingLeft=4;spacingRight=4;overflow=hidden;rotatable=0;points=[[0,0.5],[1,0.5]];portConstraint=eastwest;whiteSpace=wrap;html=1;" parent="u_rGbPmxzEg5UCbJ7NDs-32" vertex="1">
          <mxGeometry y="104" width="350" height="26" as="geometry" />
        </mxCell>
        <mxCell id="xcTpRN-NQ14HoFIhRllt-14" value="- _accountType: AccountType" style="text;strokeColor=none;fillColor=none;align=left;verticalAlign=top;spacingLeft=4;spacingRight=4;overflow=hidden;rotatable=0;points=[[0,0.5],[1,0.5]];portConstraint=eastwest;whiteSpace=wrap;html=1;" vertex="1" parent="u_rGbPmxzEg5UCbJ7NDs-32">
          <mxGeometry y="130" width="350" height="26" as="geometry" />
        </mxCell>
        <mxCell id="u_rGbPmxzEg5UCbJ7NDs-34" value="" style="line;strokeWidth=1;fillColor=none;align=left;verticalAlign=middle;spacingTop=-1;spacingLeft=3;spacingRight=3;rotatable=0;labelPosition=right;points=[];portConstraint=eastwest;strokeColor=inherit;" parent="u_rGbPmxzEg5UCbJ7NDs-32" vertex="1">
          <mxGeometry y="156" width="350" height="8" as="geometry" />
        </mxCell>
        <mxCell id="u_rGbPmxzEg5UCbJ7NDs-35" value="+ ValidatePin(int pin): bool" style="text;strokeColor=none;fillColor=none;align=left;verticalAlign=top;spacingLeft=4;spacingRight=4;overflow=hidden;rotatable=0;points=[[0,0.5],[1,0.5]];portConstraint=eastwest;whiteSpace=wrap;html=1;" parent="u_rGbPmxzEg5UCbJ7NDs-32" vertex="1">
          <mxGeometry y="164" width="350" height="26" as="geometry" />
        </mxCell>
        <mxCell id="xcTpRN-NQ14HoFIhRllt-15" value="+ SelectAccountType(string type, string name): void" style="text;strokeColor=none;fillColor=none;align=left;verticalAlign=top;spacingLeft=4;spacingRight=4;overflow=hidden;rotatable=0;points=[[0,0.5],[1,0.5]];portConstraint=eastwest;whiteSpace=wrap;html=1;" vertex="1" parent="u_rGbPmxzEg5UCbJ7NDs-32">
          <mxGeometry y="190" width="350" height="26" as="geometry" />
        </mxCell>
        <mxCell id="u_rGbPmxzEg5UCbJ7NDs-56" value="+ OptionProcessing(string command, Account, account): void" style="text;strokeColor=none;fillColor=none;align=left;verticalAlign=top;spacingLeft=4;spacingRight=4;overflow=hidden;rotatable=0;points=[[0,0.5],[1,0.5]];portConstraint=eastwest;whiteSpace=wrap;html=1;" parent="u_rGbPmxzEg5UCbJ7NDs-32" vertex="1">
          <mxGeometry y="216" width="350" height="26" as="geometry" />
        </mxCell>
        <mxCell id="0fzU9Dq7q9H-cfSeIL3q-2" value="+ DetailsATM: string &amp;lt;&amp;lt;readonly, property&amp;gt;&amp;gt;" style="text;strokeColor=none;fillColor=none;align=left;verticalAlign=top;spacingLeft=4;spacingRight=4;overflow=hidden;rotatable=0;points=[[0,0.5],[1,0.5]];portConstraint=eastwest;whiteSpace=wrap;html=1;" parent="u_rGbPmxzEg5UCbJ7NDs-32" vertex="1">
          <mxGeometry y="242" width="350" height="26" as="geometry" />
        </mxCell>
        <mxCell id="xcTpRN-NQ14HoFIhRllt-11" value="+ CurrentAccount: Account &amp;lt;&amp;lt;property&amp;gt;&amp;gt;" style="text;strokeColor=none;fillColor=none;align=left;verticalAlign=top;spacingLeft=4;spacingRight=4;overflow=hidden;rotatable=0;points=[[0,0.5],[1,0.5]];portConstraint=eastwest;whiteSpace=wrap;html=1;" vertex="1" parent="u_rGbPmxzEg5UCbJ7NDs-32">
          <mxGeometry y="268" width="350" height="26" as="geometry" />
        </mxCell>
        <mxCell id="xcTpRN-NQ14HoFIhRllt-12" value="+ CurrentUser: Customer &amp;lt;&amp;lt;property&amp;gt;&amp;gt;" style="text;strokeColor=none;fillColor=none;align=left;verticalAlign=top;spacingLeft=4;spacingRight=4;overflow=hidden;rotatable=0;points=[[0,0.5],[1,0.5]];portConstraint=eastwest;whiteSpace=wrap;html=1;" vertex="1" parent="u_rGbPmxzEg5UCbJ7NDs-32">
          <mxGeometry y="294" width="350" height="26" as="geometry" />
        </mxCell>
        <mxCell id="u_rGbPmxzEg5UCbJ7NDs-31" value="+ AccountType AccountType &amp;lt;&amp;lt;property&amp;gt;&amp;gt;" style="text;strokeColor=none;fillColor=none;align=left;verticalAlign=top;spacingLeft=4;spacingRight=4;overflow=hidden;rotatable=0;points=[[0,0.5],[1,0.5]];portConstraint=eastwest;whiteSpace=wrap;html=1;" parent="u_rGbPmxzEg5UCbJ7NDs-32" vertex="1">
          <mxGeometry y="320" width="350" height="26" as="geometry" />
        </mxCell>
        <mxCell id="u_rGbPmxzEg5UCbJ7NDs-36" value="" style="endArrow=block;endSize=16;endFill=0;html=1;rounded=0;exitX=0.5;exitY=0;exitDx=0;exitDy=0;" parent="WIyWlLk6GJQsqaUBKTNV-1" source="u_rGbPmxzEg5UCbJ7NDs-32" target="u_rGbPmxzEg5UCbJ7NDs-9" edge="1">
          <mxGeometry x="-0.3312" y="-1" width="160" relative="1" as="geometry">
            <mxPoint x="-105" y="230" as="sourcePoint" />
            <mxPoint x="-5.519999999999982" y="138.80599999999993" as="targetPoint" />
            <mxPoint as="offset" />
          </mxGeometry>
        </mxCell>
        <mxCell id="jDgMBZ_0vtlGDlaDWDbC-0" value="inherit" style="edgeLabel;html=1;align=center;verticalAlign=middle;resizable=0;points=[];" parent="u_rGbPmxzEg5UCbJ7NDs-36" vertex="1" connectable="0">
          <mxGeometry x="0.211" relative="1" as="geometry">
            <mxPoint y="17" as="offset" />
          </mxGeometry>
        </mxCell>
        <mxCell id="u_rGbPmxzEg5UCbJ7NDs-38" value="SavingsAccount" style="swimlane;fontStyle=1;align=center;verticalAlign=top;childLayout=stackLayout;horizontal=1;startSize=26;horizontalStack=0;resizeParent=1;resizeParentMax=0;resizeLast=0;collapsible=1;marginBottom=0;whiteSpace=wrap;html=1;" parent="WIyWlLk6GJQsqaUBKTNV-1" vertex="1">
          <mxGeometry x="145" y="456" width="349" height="372" as="geometry" />
        </mxCell>
        <mxCell id="jDgMBZ_0vtlGDlaDWDbC-11" value="- _balance: double" style="text;strokeColor=none;fillColor=none;align=left;verticalAlign=top;spacingLeft=4;spacingRight=4;overflow=hidden;rotatable=0;points=[[0,0.5],[1,0.5]];portConstraint=eastwest;whiteSpace=wrap;html=1;" parent="u_rGbPmxzEg5UCbJ7NDs-38" vertex="1">
          <mxGeometry y="26" width="349" height="26" as="geometry" />
        </mxCell>
        <mxCell id="jDgMBZ_0vtlGDlaDWDbC-12" value="- _transaction: List&amp;lt;Transaction&amp;gt;" style="text;strokeColor=none;fillColor=none;align=left;verticalAlign=top;spacingLeft=4;spacingRight=4;overflow=hidden;rotatable=0;points=[[0,0.5],[1,0.5]];portConstraint=eastwest;whiteSpace=wrap;html=1;" parent="u_rGbPmxzEg5UCbJ7NDs-38" vertex="1">
          <mxGeometry y="52" width="349" height="26" as="geometry" />
        </mxCell>
        <mxCell id="u_rGbPmxzEg5UCbJ7NDs-40" value="" style="line;strokeWidth=1;fillColor=none;align=left;verticalAlign=middle;spacingTop=-1;spacingLeft=3;spacingRight=3;rotatable=0;labelPosition=right;points=[];portConstraint=eastwest;strokeColor=inherit;" parent="u_rGbPmxzEg5UCbJ7NDs-38" vertex="1">
          <mxGeometry y="78" width="349" height="8" as="geometry" />
        </mxCell>
        <mxCell id="xcTpRN-NQ14HoFIhRllt-4" value="+ BalanceCheck(double amount): abstract bool" style="text;strokeColor=none;fillColor=none;align=left;verticalAlign=top;spacingLeft=4;spacingRight=4;overflow=hidden;rotatable=0;points=[[0,0.5],[1,0.5]];portConstraint=eastwest;whiteSpace=wrap;html=1;" vertex="1" parent="u_rGbPmxzEg5UCbJ7NDs-38">
          <mxGeometry y="86" width="349" height="26" as="geometry" />
        </mxCell>
        <mxCell id="xcTpRN-NQ14HoFIhRllt-3" value="+ PrintTransaction(): abstract string" style="text;strokeColor=none;fillColor=none;align=left;verticalAlign=top;spacingLeft=4;spacingRight=4;overflow=hidden;rotatable=0;points=[[0,0.5],[1,0.5]];portConstraint=eastwest;whiteSpace=wrap;html=1;" vertex="1" parent="u_rGbPmxzEg5UCbJ7NDs-38">
          <mxGeometry y="112" width="349" height="26" as="geometry" />
        </mxCell>
        <mxCell id="u_rGbPmxzEg5UCbJ7NDs-39" value="+ SavingsAccount(string id, Customer customer, int pin)" style="text;strokeColor=none;fillColor=none;align=left;verticalAlign=top;spacingLeft=4;spacingRight=4;overflow=hidden;rotatable=0;points=[[0,0.5],[1,0.5]];portConstraint=eastwest;whiteSpace=wrap;html=1;" parent="u_rGbPmxzEg5UCbJ7NDs-38" vertex="1">
          <mxGeometry y="138" width="349" height="26" as="geometry" />
        </mxCell>
        <mxCell id="CnJATWPRRtcftuDtqHO4-0" value="+ Deposit(double amount):override void" style="text;strokeColor=none;fillColor=none;align=left;verticalAlign=top;spacingLeft=4;spacingRight=4;overflow=hidden;rotatable=0;points=[[0,0.5],[1,0.5]];portConstraint=eastwest;whiteSpace=wrap;html=1;" parent="u_rGbPmxzEg5UCbJ7NDs-38" vertex="1">
          <mxGeometry y="164" width="349" height="26" as="geometry" />
        </mxCell>
        <mxCell id="u_rGbPmxzEg5UCbJ7NDs-71" value="+ Withdraw(double amount):override void" style="text;strokeColor=none;fillColor=none;align=left;verticalAlign=top;spacingLeft=4;spacingRight=4;overflow=hidden;rotatable=0;points=[[0,0.5],[1,0.5]];portConstraint=eastwest;whiteSpace=wrap;html=1;" parent="u_rGbPmxzEg5UCbJ7NDs-38" vertex="1">
          <mxGeometry y="190" width="349" height="26" as="geometry" />
        </mxCell>
        <mxCell id="u_rGbPmxzEg5UCbJ7NDs-80" value="+ Transfer(double amount, string id):override void" style="text;strokeColor=none;fillColor=none;align=left;verticalAlign=top;spacingLeft=4;spacingRight=4;overflow=hidden;rotatable=0;points=[[0,0.5],[1,0.5]];portConstraint=eastwest;whiteSpace=wrap;html=1;" parent="u_rGbPmxzEg5UCbJ7NDs-38" vertex="1">
          <mxGeometry y="216" width="349" height="26" as="geometry" />
        </mxCell>
        <mxCell id="g_BoX3DPN_9PklCH6StF-1" value="+&amp;nbsp; PrintTransaction(): override string" style="text;strokeColor=none;fillColor=none;align=left;verticalAlign=top;spacingLeft=4;spacingRight=4;overflow=hidden;rotatable=0;points=[[0,0.5],[1,0.5]];portConstraint=eastwest;whiteSpace=wrap;html=1;" parent="u_rGbPmxzEg5UCbJ7NDs-38" vertex="1">
          <mxGeometry y="242" width="349" height="26" as="geometry" />
        </mxCell>
        <mxCell id="xcTpRN-NQ14HoFIhRllt-7" value="+ AccountType: string &amp;lt;&amp;lt; override, readonly, property&amp;gt;&amp;gt;" style="text;strokeColor=none;fillColor=none;align=left;verticalAlign=top;spacingLeft=4;spacingRight=4;overflow=hidden;rotatable=0;points=[[0,0.5],[1,0.5]];portConstraint=eastwest;whiteSpace=wrap;html=1;" vertex="1" parent="u_rGbPmxzEg5UCbJ7NDs-38">
          <mxGeometry y="268" width="349" height="26" as="geometry" />
        </mxCell>
        <mxCell id="0fzU9Dq7q9H-cfSeIL3q-0" value="# Transactions: List&amp;lt;Transactions&amp;gt; &amp;lt;&amp;lt;readonly, property&amp;gt;&amp;gt;" style="text;strokeColor=none;fillColor=none;align=left;verticalAlign=top;spacingLeft=4;spacingRight=4;overflow=hidden;rotatable=0;points=[[0,0.5],[1,0.5]];portConstraint=eastwest;whiteSpace=wrap;html=1;" parent="u_rGbPmxzEg5UCbJ7NDs-38" vertex="1">
          <mxGeometry y="294" width="349" height="26" as="geometry" />
        </mxCell>
        <mxCell id="jDgMBZ_0vtlGDlaDWDbC-13" value="# Balance: double &amp;lt;&amp;lt;readonly, property&amp;gt;&amp;gt;" style="text;strokeColor=none;fillColor=none;align=left;verticalAlign=top;spacingLeft=4;spacingRight=4;overflow=hidden;rotatable=0;points=[[0,0.5],[1,0.5]];portConstraint=eastwest;whiteSpace=wrap;html=1;" parent="u_rGbPmxzEg5UCbJ7NDs-38" vertex="1">
          <mxGeometry y="320" width="349" height="26" as="geometry" />
        </mxCell>
        <mxCell id="u_rGbPmxzEg5UCbJ7NDs-72" value="+ AccountDetails: string &amp;lt;&amp;lt;override, readonly, property&amp;gt;&amp;gt;" style="text;strokeColor=none;fillColor=none;align=left;verticalAlign=top;spacingLeft=4;spacingRight=4;overflow=hidden;rotatable=0;points=[[0,0.5],[1,0.5]];portConstraint=eastwest;whiteSpace=wrap;html=1;" parent="u_rGbPmxzEg5UCbJ7NDs-38" vertex="1">
          <mxGeometry y="346" width="349" height="26" as="geometry" />
        </mxCell>
        <mxCell id="u_rGbPmxzEg5UCbJ7NDs-74" value="CurrentAccount" style="swimlane;fontStyle=1;align=center;verticalAlign=top;childLayout=stackLayout;horizontal=1;startSize=26;horizontalStack=0;resizeParent=1;resizeParentMax=0;resizeLast=0;collapsible=1;marginBottom=0;whiteSpace=wrap;html=1;" parent="WIyWlLk6GJQsqaUBKTNV-1" vertex="1">
          <mxGeometry x="507" y="456" width="343" height="372" as="geometry" />
        </mxCell>
        <mxCell id="u_rGbPmxzEg5UCbJ7NDs-53" value="- _balance: double" style="text;strokeColor=none;fillColor=none;align=left;verticalAlign=top;spacingLeft=4;spacingRight=4;overflow=hidden;rotatable=0;points=[[0,0.5],[1,0.5]];portConstraint=eastwest;whiteSpace=wrap;html=1;" parent="u_rGbPmxzEg5UCbJ7NDs-74" vertex="1">
          <mxGeometry y="26" width="343" height="26" as="geometry" />
        </mxCell>
        <mxCell id="u_rGbPmxzEg5UCbJ7NDs-92" value="- _transaction: List&amp;lt;Transaction&amp;gt;" style="text;strokeColor=none;fillColor=none;align=left;verticalAlign=top;spacingLeft=4;spacingRight=4;overflow=hidden;rotatable=0;points=[[0,0.5],[1,0.5]];portConstraint=eastwest;whiteSpace=wrap;html=1;" parent="u_rGbPmxzEg5UCbJ7NDs-74" vertex="1">
          <mxGeometry y="52" width="343" height="26" as="geometry" />
        </mxCell>
        <mxCell id="u_rGbPmxzEg5UCbJ7NDs-75" value="" style="line;strokeWidth=1;fillColor=none;align=left;verticalAlign=middle;spacingTop=-1;spacingLeft=3;spacingRight=3;rotatable=0;labelPosition=right;points=[];portConstraint=eastwest;strokeColor=inherit;" parent="u_rGbPmxzEg5UCbJ7NDs-74" vertex="1">
          <mxGeometry y="78" width="343" height="8" as="geometry" />
        </mxCell>
        <mxCell id="CnJATWPRRtcftuDtqHO4-1" value="+ CurrentAccount(string id, Customer customer, int pin)" style="text;strokeColor=none;fillColor=none;align=left;verticalAlign=top;spacingLeft=4;spacingRight=4;overflow=hidden;rotatable=0;points=[[0,0.5],[1,0.5]];portConstraint=eastwest;whiteSpace=wrap;html=1;" parent="u_rGbPmxzEg5UCbJ7NDs-74" vertex="1">
          <mxGeometry y="86" width="343" height="26" as="geometry" />
        </mxCell>
        <mxCell id="xcTpRN-NQ14HoFIhRllt-5" value="+ PrintTransaction(): abstract string" style="text;strokeColor=none;fillColor=none;align=left;verticalAlign=top;spacingLeft=4;spacingRight=4;overflow=hidden;rotatable=0;points=[[0,0.5],[1,0.5]];portConstraint=eastwest;whiteSpace=wrap;html=1;" vertex="1" parent="u_rGbPmxzEg5UCbJ7NDs-74">
          <mxGeometry y="112" width="343" height="26" as="geometry" />
        </mxCell>
        <mxCell id="xcTpRN-NQ14HoFIhRllt-6" value="+ BalanceCheck(double amount): abstract bool" style="text;strokeColor=none;fillColor=none;align=left;verticalAlign=top;spacingLeft=4;spacingRight=4;overflow=hidden;rotatable=0;points=[[0,0.5],[1,0.5]];portConstraint=eastwest;whiteSpace=wrap;html=1;" vertex="1" parent="u_rGbPmxzEg5UCbJ7NDs-74">
          <mxGeometry y="138" width="343" height="26" as="geometry" />
        </mxCell>
        <mxCell id="u_rGbPmxzEg5UCbJ7NDs-76" value="+ Deposit(double amount):override void" style="text;strokeColor=none;fillColor=none;align=left;verticalAlign=top;spacingLeft=4;spacingRight=4;overflow=hidden;rotatable=0;points=[[0,0.5],[1,0.5]];portConstraint=eastwest;whiteSpace=wrap;html=1;" parent="u_rGbPmxzEg5UCbJ7NDs-74" vertex="1">
          <mxGeometry y="164" width="343" height="26" as="geometry" />
        </mxCell>
        <mxCell id="u_rGbPmxzEg5UCbJ7NDs-77" value="+ Withdraw(double amount):override void" style="text;strokeColor=none;fillColor=none;align=left;verticalAlign=top;spacingLeft=4;spacingRight=4;overflow=hidden;rotatable=0;points=[[0,0.5],[1,0.5]];portConstraint=eastwest;whiteSpace=wrap;html=1;" parent="u_rGbPmxzEg5UCbJ7NDs-74" vertex="1">
          <mxGeometry y="190" width="343" height="26" as="geometry" />
        </mxCell>
        <mxCell id="u_rGbPmxzEg5UCbJ7NDs-78" value="+ Transfer(double amount, string id):override void" style="text;strokeColor=none;fillColor=none;align=left;verticalAlign=top;spacingLeft=4;spacingRight=4;overflow=hidden;rotatable=0;points=[[0,0.5],[1,0.5]];portConstraint=eastwest;whiteSpace=wrap;html=1;" parent="u_rGbPmxzEg5UCbJ7NDs-74" vertex="1">
          <mxGeometry y="216" width="343" height="26" as="geometry" />
        </mxCell>
        <mxCell id="g_BoX3DPN_9PklCH6StF-0" value="+&amp;nbsp; PrintTransaction(): override string" style="text;strokeColor=none;fillColor=none;align=left;verticalAlign=top;spacingLeft=4;spacingRight=4;overflow=hidden;rotatable=0;points=[[0,0.5],[1,0.5]];portConstraint=eastwest;whiteSpace=wrap;html=1;" parent="u_rGbPmxzEg5UCbJ7NDs-74" vertex="1">
          <mxGeometry y="242" width="343" height="26" as="geometry" />
        </mxCell>
        <mxCell id="xcTpRN-NQ14HoFIhRllt-8" value="+ AccountType: string &amp;lt;&amp;lt; override, readonly, property&amp;gt;&amp;gt;" style="text;strokeColor=none;fillColor=none;align=left;verticalAlign=top;spacingLeft=4;spacingRight=4;overflow=hidden;rotatable=0;points=[[0,0.5],[1,0.5]];portConstraint=eastwest;whiteSpace=wrap;html=1;" vertex="1" parent="u_rGbPmxzEg5UCbJ7NDs-74">
          <mxGeometry y="268" width="343" height="26" as="geometry" />
        </mxCell>
        <mxCell id="0fzU9Dq7q9H-cfSeIL3q-1" value="# Transactions: List&amp;lt;Transactions&amp;gt; &amp;lt;&amp;lt;readonly, property&amp;gt;&amp;gt;" style="text;strokeColor=none;fillColor=none;align=left;verticalAlign=top;spacingLeft=4;spacingRight=4;overflow=hidden;rotatable=0;points=[[0,0.5],[1,0.5]];portConstraint=eastwest;whiteSpace=wrap;html=1;" parent="u_rGbPmxzEg5UCbJ7NDs-74" vertex="1">
          <mxGeometry y="294" width="343" height="26" as="geometry" />
        </mxCell>
        <mxCell id="jDgMBZ_0vtlGDlaDWDbC-14" value="# Balance: double &amp;lt;&amp;lt;readonly, property&amp;gt;&amp;gt;" style="text;strokeColor=none;fillColor=none;align=left;verticalAlign=top;spacingLeft=4;spacingRight=4;overflow=hidden;rotatable=0;points=[[0,0.5],[1,0.5]];portConstraint=eastwest;whiteSpace=wrap;html=1;" parent="u_rGbPmxzEg5UCbJ7NDs-74" vertex="1">
          <mxGeometry y="320" width="343" height="26" as="geometry" />
        </mxCell>
        <mxCell id="u_rGbPmxzEg5UCbJ7NDs-81" value="+ AccountDetails: string &amp;lt;&amp;lt;override, readonly, property&amp;gt;&amp;gt;" style="text;strokeColor=none;fillColor=none;align=left;verticalAlign=top;spacingLeft=4;spacingRight=4;overflow=hidden;rotatable=0;points=[[0,0.5],[1,0.5]];portConstraint=eastwest;whiteSpace=wrap;html=1;" parent="u_rGbPmxzEg5UCbJ7NDs-74" vertex="1">
          <mxGeometry y="346" width="343" height="26" as="geometry" />
        </mxCell>
        <mxCell id="u_rGbPmxzEg5UCbJ7NDs-82" value="" style="endArrow=block;endSize=16;endFill=0;html=1;rounded=0;exitX=0.5;exitY=0;exitDx=0;exitDy=0;entryX=0.5;entryY=1.012;entryDx=0;entryDy=0;entryPerimeter=0;" parent="WIyWlLk6GJQsqaUBKTNV-1" source="u_rGbPmxzEg5UCbJ7NDs-38" target="u_rGbPmxzEg5UCbJ7NDs-59" edge="1">
          <mxGeometry width="160" relative="1" as="geometry">
            <mxPoint x="476" y="458" as="sourcePoint" />
            <mxPoint x="645" y="380" as="targetPoint" />
            <Array as="points">
              <mxPoint x="320" y="410" />
              <mxPoint x="495" y="410" />
            </Array>
          </mxGeometry>
        </mxCell>
        <mxCell id="u_rGbPmxzEg5UCbJ7NDs-84" value="" style="endArrow=block;endSize=16;endFill=0;html=1;rounded=0;exitX=0.5;exitY=0;exitDx=0;exitDy=0;entryX=0.5;entryY=1;entryDx=0;entryDy=0;" parent="WIyWlLk6GJQsqaUBKTNV-1" source="u_rGbPmxzEg5UCbJ7NDs-74" target="u_rGbPmxzEg5UCbJ7NDs-0" edge="1">
          <mxGeometry width="160" relative="1" as="geometry">
            <mxPoint x="810" y="531" as="sourcePoint" />
            <mxPoint x="645" y="380" as="targetPoint" />
            <Array as="points">
              <mxPoint x="679" y="410" />
              <mxPoint x="495" y="410" />
            </Array>
          </mxGeometry>
        </mxCell>
        <mxCell id="u_rGbPmxzEg5UCbJ7NDs-89" value="" style="endArrow=none;html=1;edgeStyle=orthogonalEdgeStyle;rounded=0;exitX=0;exitY=0.5;exitDx=0;exitDy=0;" parent="WIyWlLk6GJQsqaUBKTNV-1" source="u_rGbPmxzEg5UCbJ7NDs-21" edge="1">
          <mxGeometry relative="1" as="geometry">
            <mxPoint x="290" y="69" as="sourcePoint" />
            <mxPoint x="670" y="-5" as="targetPoint" />
          </mxGeometry>
        </mxCell>
        <mxCell id="u_rGbPmxzEg5UCbJ7NDs-90" value="1" style="edgeLabel;resizable=0;html=1;align=left;verticalAlign=bottom;" parent="u_rGbPmxzEg5UCbJ7NDs-89" connectable="0" vertex="1">
          <mxGeometry x="-1" relative="1" as="geometry">
            <mxPoint x="-30" as="offset" />
          </mxGeometry>
        </mxCell>
        <mxCell id="u_rGbPmxzEg5UCbJ7NDs-91" value="0...*" style="edgeLabel;resizable=0;html=1;align=right;verticalAlign=bottom;" parent="u_rGbPmxzEg5UCbJ7NDs-89" connectable="0" vertex="1">
          <mxGeometry x="1" relative="1" as="geometry">
            <mxPoint x="40" y="-1" as="offset" />
          </mxGeometry>
        </mxCell>
        <mxCell id="u_rGbPmxzEg5UCbJ7NDs-93" value="Transaction" style="swimlane;fontStyle=1;align=center;verticalAlign=top;childLayout=stackLayout;horizontal=1;startSize=26;horizontalStack=0;resizeParent=1;resizeParentMax=0;resizeLast=0;collapsible=1;marginBottom=0;whiteSpace=wrap;html=1;" parent="WIyWlLk6GJQsqaUBKTNV-1" vertex="1">
          <mxGeometry x="869" y="294" width="350" height="294" as="geometry" />
        </mxCell>
        <mxCell id="u_rGbPmxzEg5UCbJ7NDs-94" value="- _transactionDate: Date" style="text;strokeColor=none;fillColor=none;align=left;verticalAlign=top;spacingLeft=4;spacingRight=4;overflow=hidden;rotatable=0;points=[[0,0.5],[1,0.5]];portConstraint=eastwest;whiteSpace=wrap;html=1;" parent="u_rGbPmxzEg5UCbJ7NDs-93" vertex="1">
          <mxGeometry y="26" width="350" height="26" as="geometry" />
        </mxCell>
        <mxCell id="9l-UM62j9e9hHBPbPgep-5" value="- _type: string" style="text;strokeColor=none;fillColor=none;align=left;verticalAlign=top;spacingLeft=4;spacingRight=4;overflow=hidden;rotatable=0;points=[[0,0.5],[1,0.5]];portConstraint=eastwest;whiteSpace=wrap;html=1;" parent="u_rGbPmxzEg5UCbJ7NDs-93" vertex="1">
          <mxGeometry y="52" width="350" height="26" as="geometry" />
        </mxCell>
        <mxCell id="9l-UM62j9e9hHBPbPgep-39" value="- _desc: string" style="text;strokeColor=none;fillColor=none;align=left;verticalAlign=top;spacingLeft=4;spacingRight=4;overflow=hidden;rotatable=0;points=[[0,0.5],[1,0.5]];portConstraint=eastwest;whiteSpace=wrap;html=1;" parent="u_rGbPmxzEg5UCbJ7NDs-93" vertex="1">
          <mxGeometry y="78" width="350" height="26" as="geometry" />
        </mxCell>
        <mxCell id="x_VJUvzH77KP-ZlMVjkW-2" value="- _amount: double" style="text;strokeColor=none;fillColor=none;align=left;verticalAlign=top;spacingLeft=4;spacingRight=4;overflow=hidden;rotatable=0;points=[[0,0.5],[1,0.5]];portConstraint=eastwest;whiteSpace=wrap;html=1;" parent="u_rGbPmxzEg5UCbJ7NDs-93" vertex="1">
          <mxGeometry y="104" width="350" height="26" as="geometry" />
        </mxCell>
        <mxCell id="u_rGbPmxzEg5UCbJ7NDs-95" value="" style="line;strokeWidth=1;fillColor=none;align=left;verticalAlign=middle;spacingTop=-1;spacingLeft=3;spacingRight=3;rotatable=0;labelPosition=right;points=[];portConstraint=eastwest;strokeColor=inherit;" parent="u_rGbPmxzEg5UCbJ7NDs-93" vertex="1">
          <mxGeometry y="130" width="350" height="8" as="geometry" />
        </mxCell>
        <mxCell id="u_rGbPmxzEg5UCbJ7NDs-96" value="+ Transaction(Date date, TransactionType type)" style="text;strokeColor=none;fillColor=none;align=left;verticalAlign=top;spacingLeft=4;spacingRight=4;overflow=hidden;rotatable=0;points=[[0,0.5],[1,0.5]];portConstraint=eastwest;whiteSpace=wrap;html=1;" parent="u_rGbPmxzEg5UCbJ7NDs-93" vertex="1">
          <mxGeometry y="138" width="350" height="26" as="geometry" />
        </mxCell>
        <mxCell id="9l-UM62j9e9hHBPbPgep-41" value="+&amp;nbsp; TransactionSummary(): void" style="text;strokeColor=none;fillColor=none;align=left;verticalAlign=top;spacingLeft=4;spacingRight=4;overflow=hidden;rotatable=0;points=[[0,0.5],[1,0.5]];portConstraint=eastwest;whiteSpace=wrap;html=1;" parent="u_rGbPmxzEg5UCbJ7NDs-93" vertex="1">
          <mxGeometry y="164" width="350" height="26" as="geometry" />
        </mxCell>
        <mxCell id="jDgMBZ_0vtlGDlaDWDbC-20" value="+&amp;nbsp; Date: Date &amp;lt;&amp;lt;readonly, property&amp;gt;&amp;gt;" style="text;strokeColor=none;fillColor=none;align=left;verticalAlign=top;spacingLeft=4;spacingRight=4;overflow=hidden;rotatable=0;points=[[0,0.5],[1,0.5]];portConstraint=eastwest;whiteSpace=wrap;html=1;" parent="u_rGbPmxzEg5UCbJ7NDs-93" vertex="1">
          <mxGeometry y="190" width="350" height="26" as="geometry" />
        </mxCell>
        <mxCell id="9l-UM62j9e9hHBPbPgep-42" value="+&amp;nbsp; Type: string &amp;lt;&amp;lt;readonly, property&amp;gt;&amp;gt;" style="text;strokeColor=none;fillColor=none;align=left;verticalAlign=top;spacingLeft=4;spacingRight=4;overflow=hidden;rotatable=0;points=[[0,0.5],[1,0.5]];portConstraint=eastwest;whiteSpace=wrap;html=1;" parent="u_rGbPmxzEg5UCbJ7NDs-93" vertex="1">
          <mxGeometry y="216" width="350" height="26" as="geometry" />
        </mxCell>
        <mxCell id="xcTpRN-NQ14HoFIhRllt-9" value="+&amp;nbsp; Description: string &amp;lt;&amp;lt;readonly, property&amp;gt;&amp;gt;" style="text;strokeColor=none;fillColor=none;align=left;verticalAlign=top;spacingLeft=4;spacingRight=4;overflow=hidden;rotatable=0;points=[[0,0.5],[1,0.5]];portConstraint=eastwest;whiteSpace=wrap;html=1;" vertex="1" parent="u_rGbPmxzEg5UCbJ7NDs-93">
          <mxGeometry y="242" width="350" height="26" as="geometry" />
        </mxCell>
        <mxCell id="9l-UM62j9e9hHBPbPgep-6" value="+&amp;nbsp; Amount double &amp;lt;&amp;lt;readonly, property&amp;gt;&amp;gt;" style="text;strokeColor=none;fillColor=none;align=left;verticalAlign=top;spacingLeft=4;spacingRight=4;overflow=hidden;rotatable=0;points=[[0,0.5],[1,0.5]];portConstraint=eastwest;whiteSpace=wrap;html=1;" parent="u_rGbPmxzEg5UCbJ7NDs-93" vertex="1">
          <mxGeometry y="268" width="350" height="26" as="geometry" />
        </mxCell>
        <mxCell id="9l-UM62j9e9hHBPbPgep-1" value="" style="endArrow=diamondThin;endFill=0;endSize=24;html=1;rounded=0;exitX=-0.011;exitY=0.89;exitDx=0;exitDy=0;entryX=0.999;entryY=1.028;entryDx=0;entryDy=0;entryPerimeter=0;exitPerimeter=0;" parent="WIyWlLk6GJQsqaUBKTNV-1" source="u_rGbPmxzEg5UCbJ7NDs-1" target="u_rGbPmxzEg5UCbJ7NDs-7" edge="1">
          <mxGeometry width="160" relative="1" as="geometry">
            <mxPoint x="280" y="180" as="sourcePoint" />
            <mxPoint x="320" y="50" as="targetPoint" />
          </mxGeometry>
        </mxCell>
        <mxCell id="9l-UM62j9e9hHBPbPgep-2" value="0...*" style="edgeLabel;resizable=0;html=1;align=right;verticalAlign=bottom;" parent="WIyWlLk6GJQsqaUBKTNV-1" connectable="0" vertex="1">
          <mxGeometry x="300.003337738195" y="-14.996022567953261" as="geometry">
            <mxPoint x="1" y="10" as="offset" />
          </mxGeometry>
        </mxCell>
        <mxCell id="9l-UM62j9e9hHBPbPgep-3" value="1" style="edgeLabel;resizable=0;html=1;align=left;verticalAlign=bottom;" parent="WIyWlLk6GJQsqaUBKTNV-1" connectable="0" vertex="1">
          <mxGeometry x="123" y="-6" as="geometry" />
        </mxCell>
        <mxCell id="9l-UM62j9e9hHBPbPgep-30" value="Date" style="swimlane;fontStyle=1;align=center;verticalAlign=top;childLayout=stackLayout;horizontal=1;startSize=26;horizontalStack=0;resizeParent=1;resizeParentMax=0;resizeLast=0;collapsible=1;marginBottom=0;whiteSpace=wrap;html=1;" parent="WIyWlLk6GJQsqaUBKTNV-1" vertex="1">
          <mxGeometry x="1269" y="155" width="210" height="164" as="geometry" />
        </mxCell>
        <mxCell id="9l-UM62j9e9hHBPbPgep-31" value="- _date: DateTime" style="text;strokeColor=none;fillColor=none;align=left;verticalAlign=top;spacingLeft=4;spacingRight=4;overflow=hidden;rotatable=0;points=[[0,0.5],[1,0.5]];portConstraint=eastwest;whiteSpace=wrap;html=1;" parent="9l-UM62j9e9hHBPbPgep-30" vertex="1">
          <mxGeometry y="26" width="210" height="26" as="geometry" />
        </mxCell>
        <mxCell id="9l-UM62j9e9hHBPbPgep-34" value="- _time: DateTime" style="text;strokeColor=none;fillColor=none;align=left;verticalAlign=top;spacingLeft=4;spacingRight=4;overflow=hidden;rotatable=0;points=[[0,0.5],[1,0.5]];portConstraint=eastwest;whiteSpace=wrap;html=1;" parent="9l-UM62j9e9hHBPbPgep-30" vertex="1">
          <mxGeometry y="52" width="210" height="26" as="geometry" />
        </mxCell>
        <mxCell id="9l-UM62j9e9hHBPbPgep-32" value="" style="line;strokeWidth=1;fillColor=none;align=left;verticalAlign=middle;spacingTop=-1;spacingLeft=3;spacingRight=3;rotatable=0;labelPosition=right;points=[];portConstraint=eastwest;strokeColor=inherit;" parent="9l-UM62j9e9hHBPbPgep-30" vertex="1">
          <mxGeometry y="78" width="210" height="8" as="geometry" />
        </mxCell>
        <mxCell id="xcTpRN-NQ14HoFIhRllt-10" value="+ Date(DateTime dateTime)" style="text;strokeColor=none;fillColor=none;align=left;verticalAlign=top;spacingLeft=4;spacingRight=4;overflow=hidden;rotatable=0;points=[[0,0.5],[1,0.5]];portConstraint=eastwest;whiteSpace=wrap;html=1;" vertex="1" parent="9l-UM62j9e9hHBPbPgep-30">
          <mxGeometry y="86" width="210" height="26" as="geometry" />
        </mxCell>
        <mxCell id="9l-UM62j9e9hHBPbPgep-33" value="+ Date: string &amp;lt;&amp;lt;readonly, property&amp;gt;&amp;gt;" style="text;strokeColor=none;fillColor=none;align=left;verticalAlign=top;spacingLeft=4;spacingRight=4;overflow=hidden;rotatable=0;points=[[0,0.5],[1,0.5]];portConstraint=eastwest;whiteSpace=wrap;html=1;" parent="9l-UM62j9e9hHBPbPgep-30" vertex="1">
          <mxGeometry y="112" width="210" height="26" as="geometry" />
        </mxCell>
        <mxCell id="9l-UM62j9e9hHBPbPgep-35" value="+ Time: string &amp;lt;&amp;lt;readonly, property&amp;gt;&amp;gt;" style="text;strokeColor=none;fillColor=none;align=left;verticalAlign=top;spacingLeft=4;spacingRight=4;overflow=hidden;rotatable=0;points=[[0,0.5],[1,0.5]];portConstraint=eastwest;whiteSpace=wrap;html=1;" parent="9l-UM62j9e9hHBPbPgep-30" vertex="1">
          <mxGeometry y="138" width="210" height="26" as="geometry" />
        </mxCell>
        <mxCell id="9l-UM62j9e9hHBPbPgep-36" value="" style="endArrow=open;endFill=1;endSize=12;html=1;rounded=0;exitX=1;exitY=0.5;exitDx=0;exitDy=0;entryX=0;entryY=0.5;entryDx=0;entryDy=0;" parent="WIyWlLk6GJQsqaUBKTNV-1" source="u_rGbPmxzEg5UCbJ7NDs-94" target="9l-UM62j9e9hHBPbPgep-34" edge="1">
          <mxGeometry width="160" relative="1" as="geometry">
            <mxPoint x="1235" y="293" as="sourcePoint" />
            <mxPoint x="1320" y="294" as="targetPoint" />
            <Array as="points">
              <mxPoint x="1240" y="333" />
              <mxPoint x="1240" y="220" />
            </Array>
          </mxGeometry>
        </mxCell>
        <mxCell id="jDgMBZ_0vtlGDlaDWDbC-17" value="" style="endArrow=block;endSize=16;endFill=0;html=1;rounded=0;exitX=0.75;exitY=0;exitDx=0;exitDy=0;entryX=0;entryY=0.5;entryDx=0;entryDy=0;" parent="WIyWlLk6GJQsqaUBKTNV-1" source="u_rGbPmxzEg5UCbJ7NDs-74" target="x_VJUvzH77KP-ZlMVjkW-2" edge="1">
          <mxGeometry width="160" relative="1" as="geometry">
            <mxPoint x="670" y="397.8" as="sourcePoint" />
            <mxPoint x="830" y="397.8" as="targetPoint" />
            <Array as="points">
              <mxPoint x="764" y="410" />
            </Array>
          </mxGeometry>
        </mxCell>
        <mxCell id="jDgMBZ_0vtlGDlaDWDbC-18" value="" style="endArrow=block;endSize=16;endFill=0;html=1;rounded=0;entryX=-0.002;entryY=0.31;entryDx=0;entryDy=0;exitX=0.242;exitY=-0.001;exitDx=0;exitDy=0;exitPerimeter=0;entryPerimeter=0;" parent="WIyWlLk6GJQsqaUBKTNV-1" source="u_rGbPmxzEg5UCbJ7NDs-38" target="9l-UM62j9e9hHBPbPgep-39" edge="1">
          <mxGeometry width="160" relative="1" as="geometry">
            <mxPoint x="260" y="450" as="sourcePoint" />
            <mxPoint x="895" y="359" as="targetPoint" />
            <Array as="points">
              <mxPoint x="230" y="380" />
              <mxPoint x="490" y="380" />
              <mxPoint x="690" y="380" />
            </Array>
          </mxGeometry>
        </mxCell>
      </root>
    </mxGraphModel>
  </diagram>
</mxfile>
